<?xml version="1.0"?>
<svg xmlns="http://www.w3.org/2000/svg" xmlns:xlink="http://www.w3.org/1999/xlink" version="1.1" viewBox="0 0 224 224" width="20px" height="20px"><g fill-rule="nonzero" stroke="none" stroke-width="1" stroke-linecap="butt" stroke-linejoin="miter" stroke-miterlimit="10" stroke-dasharray="" stroke-dashoffset="0" font-family="none" font-weight="none" font-size="none" text-anchor="none" style="mix-blend-mode: normal"><path d="M0,224v-224h224v224z" fill="none"/><g><g id="surface1"><path d="M53.76,26.88c-2.4675,0 -4.48,2.0125 -4.48,4.48v4.48h-31.36c-2.4675,0 -4.48,2.0125 -4.48,4.48v143.36c0,2.4675 2.0125,4.48 4.48,4.48h31.36v4.48c0,2.4675 2.0125,4.48 4.48,4.48h112c2.4675,0 4.48,-2.0125 4.48,-4.48v-4.48h35.84c2.4675,0 4.48,-2.0125 4.48,-4.48v-143.36c0,-2.4675 -2.0125,-4.48 -4.48,-4.48h-35.84v-4.48c0,-2.4675 -2.0125,-4.48 -4.48,-4.48zM58.24,35.84h103.04v3.7275c-0.0875,0.49 -0.0875,0.98 0,1.4525v141.9075c-0.0875,0.49 -0.0875,0.98 0,1.4525v3.78h-103.04v-3.7275c0.0875,-0.49 0.0875,-0.98 0,-1.4525v-141.9075c0.0875,-0.49 0.0875,-0.98 0,-1.4525zM22.4,44.8h26.88v134.4h-26.88zM170.24,44.8h31.36v134.4h-31.36z"/></g></g></g></svg>
