<?xml version="1.0" encoding="utf-8"?>
<svg version="1.1" id="Layer_1" xmlns="http://www.w3.org/2000/svg" xmlns:xlink="http://www.w3.org/1999/xlink" x="0px" y="0px"
	 viewBox="0 0 20 20" style="enable-background:new 0 0 20 20;" xml:space="preserve">
<path d="M19.06,11.84H17.7V9.51c0-0.5-0.4-0.9-0.9-0.9h-6.16V7.74h1.32c0.42,0,0.77-0.35,0.77-0.77V3.06c0-0.42-0.34-0.77-0.77-0.77
	H8.05c-0.42,0-0.77,0.35-0.77,0.77v3.91c0,0.42,0.35,0.77,0.77,0.77h1.4v0.87H3.28c-0.5,0-0.9,0.4-0.9,0.9v2.33H1.02
	c-0.42,0-0.77,0.34-0.77,0.77v3.91c0,0.42,0.35,0.77,0.77,0.77h3.91c0.42,0,0.77-0.34,0.77-0.77v-3.91c0-0.42-0.35-0.77-0.77-0.77
	H3.58V9.81h5.86v2.02H8.08c-0.42,0-0.77,0.34-0.77,0.77v3.91c0,0.42,0.35,0.77,0.77,0.77H12c0.42,0,0.77-0.34,0.77-0.77v-3.91
	c0-0.42-0.35-0.77-0.77-0.77h-1.36V9.81h5.86v2.02h-1.36c-0.42,0-0.77,0.34-0.77,0.77v3.91c0,0.42,0.34,0.77,0.77,0.77h3.91
	c0.42,0,0.77-0.34,0.77-0.77v-3.91C19.83,12.18,19.49,11.84,19.06,11.84z M8.48,3.49h3.05v3.05H8.48V3.49z M4.5,16.09H1.45v-3.05
	H4.5V16.09z M11.57,16.09H8.51v-3.05h3.05V16.09z M18.63,16.09h-3.05v-3.05h3.05V16.09z"/>
</svg>
