<?xml version="1.0" encoding="utf-8"?>
<!-- Generator: Adobe Illustrator 22.0.1, SVG Export Plug-In . SVG Version: 6.00 Build 0)  -->
<svg version="1.1" id="Layer_1" xmlns="http://www.w3.org/2000/svg" xmlns:xlink="http://www.w3.org/1999/xlink" x="0px" y="0px"
     viewBox="0 0 120 120" style="enable-background:new 0 0 120 120;" xml:space="preserve">
<g>
    <path class="st0" d="M60,6c29.8,0,54,24.2,54,54s-24.2,54-54,54S6,89.8,6,60S30.2,6,60,6 M60,0C26.9,0,0,26.9,0,60
        c0,33.1,26.9,60,60,60c33.1,0,60-26.9,60-60C120,26.9,93.1,0,60,0L60,0z"/>
</g>
<g>
    <path class="st1" d="M60,21.7c21.1,0,38.3,17.2,38.3,38.3S81.1,98.3,60,98.3S21.7,81.1,21.7,60S38.9,21.7,60,21.7 M60,15.7
        c-24.4,0-44.3,19.9-44.3,44.3s19.9,44.3,44.3,44.3s44.3-19.9,44.3-44.3S84.4,15.7,60,15.7L60,15.7z"/>
</g>
<g>
    <circle cx="60" cy="60" r="26.6"/>
</g>
</svg>