<?xml version="1.0"?>
<svg xmlns="http://www.w3.org/2000/svg" xmlns:xlink="http://www.w3.org/1999/xlink" version="1.1" viewBox="0 0 224 224" width="20px" height="20px"><g fill-rule="nonzero" stroke="none" stroke-width="1" stroke-linecap="butt" stroke-linejoin="miter" stroke-miterlimit="10" stroke-dasharray="" stroke-dashoffset="0" font-family="none" font-weight="none" font-size="none" text-anchor="none" style="mix-blend-mode: normal"><path d="M0,224v-224h224v224z" fill="none"/><g><g id="surface1"><path d="M112,26.6875l-3.9375,2.40625l-19.25,12.90625h-46.8125v147h140v-147h-46.8125l-19.25,-12.90625zM112,43.53125l17.0625,11.375l1.75,1.09375h37.1875v119h-112v-119h37.1875l1.75,-1.09375zM70,84v14h14v-14zM98,84v14h56v-14zM70,112v14h14v-14zM98,112v14h56v-14zM70,140v14h14v-14zM98,140v14h56v-14z"/></g></g></g></svg>
