<?xml version="1.0" encoding="utf-8"?>
<svg version="1.1" id="Layer_1" xmlns="http://www.w3.org/2000/svg" xmlns:xlink="http://www.w3.org/1999/xlink" x="0px" y="0px"
	 width="20px" height="20px" viewBox="0 0 20 20" enable-background="new 0 0 20 20" xml:space="preserve">
<g>
	<path fill="none" stroke="#000000" stroke-miterlimit="10" d="M49.59,11.469c0,1.564-1.269,2.834-2.835,2.834h-8.706
		c-1.564,0-2.834-1.27-2.834-2.834V8.532c0-1.565,1.27-2.834,2.834-2.834h8.706c1.566,0,2.835,1.269,2.835,2.834V11.469z"/>
	<polygon fill="none" stroke="#000000" stroke-linecap="round" stroke-linejoin="round" stroke-miterlimit="10" points="
		40.621,7.943 44.184,10.001 40.621,12.057 	"/>
</g>
<g>
	<g>
		<path d="M49.17,24.742c-0.118,0-0.236-0.041-0.332-0.125l-3.281-2.912c-0.206-0.184-0.226-0.498-0.042-0.705
			c0.183-0.207,0.498-0.225,0.706-0.043l3.281,2.912c0.206,0.184,0.226,0.498,0.042,0.705C49.445,24.686,49.308,24.742,49.17,24.742
			z"/>
	</g>
	<g>
		<path d="M43.083,24.631c-0.128,0-0.256-0.049-0.354-0.146c-0.195-0.195-0.195-0.512,0-0.707l2.806-2.799
			c0.195-0.195,0.512-0.195,0.707,0s0.195,0.512,0,0.707l-2.806,2.799C43.339,24.582,43.211,24.631,43.083,24.631z"/>
	</g>
	<g>
		<path d="M44.56,26.498c-0.123,0-0.246-0.045-0.343-0.135l-3.161-2.971c-0.201-0.189-0.211-0.506-0.021-0.707
			c0.19-0.201,0.506-0.211,0.707-0.021l3.161,2.971c0.201,0.189,0.211,0.506,0.021,0.707C44.825,26.445,44.692,26.498,44.56,26.498z
			"/>
	</g>
	<g>
		<path d="M36.829,27.475c-0.14,0-0.279-0.059-0.378-0.172c-0.181-0.209-0.158-0.525,0.051-0.705l4.569-3.947
			c0.209-0.182,0.524-0.158,0.705,0.051s0.158,0.525-0.051,0.705l-4.569,3.947C37.062,27.436,36.945,27.475,36.829,27.475z"/>
	</g>
</g>
<g>
	<path d="M39.103,23.012c-0.928,0-1.682-0.754-1.682-1.68c0-0.928,0.754-1.682,1.682-1.682s1.682,0.754,1.682,1.682
		C40.784,22.258,40.03,23.012,39.103,23.012z M39.103,20.65c-0.376,0-0.682,0.307-0.682,0.682s0.306,0.68,0.682,0.68
		s0.682-0.305,0.682-0.68S39.479,20.65,39.103,20.65z"/>
</g>
<path fill="none" stroke="#000000" stroke-miterlimit="10" d="M51.062,28.921c0,0.188-0.185,0.34-0.41,0.34H35.092
	c-0.227,0-0.411-0.152-0.411-0.34V18.205c0-0.188,0.185-0.34,0.411-0.34h15.561c0.226,0,0.41,0.152,0.41,0.34V28.921z"/>
<g>
	<path fill="none" stroke="#000000" stroke-miterlimit="10" d="M31.797,4.475c0,2.655-4.809,10.962-4.809,10.962
		S22.182,7.13,22.182,4.475s2.152-4.808,4.807-4.808C29.645-0.333,31.797,1.82,31.797,4.475z"/>
	<circle fill="none" stroke="#000000" stroke-miterlimit="10" cx="26.99" cy="4.657" r="2"/>
</g>
<g>
	<path d="M17.303,7.443H2.578c-0.432,0-0.783,0.376-0.783,0.839v4.464c0,0.462,0.352,0.838,0.783,0.838h14.725
		c0.432,0,0.783-0.376,0.783-0.838V8.282C18.086,7.82,17.734,7.443,17.303,7.443z M17.086,12.584H2.795V8.443h14.291V12.584z"/>
	<polygon points="6.053,10.671 5.223,11.737 5.721,12.053 6.29,10.819 6.307,10.819 6.832,12.044 7.382,11.729 6.543,10.68 
		6.543,10.662 7.863,10.819 7.863,10.225 6.543,10.4 6.543,10.383 7.374,9.29 6.849,8.992 6.315,10.216 6.298,10.216 5.756,9.001 
		5.223,9.307 6.044,10.374 6.044,10.392 4.759,10.225 4.759,10.819 6.053,10.653 	"/>
	<polygon points="9.682,10.671 8.851,11.737 9.35,12.053 9.918,10.819 9.936,10.819 10.46,12.044 11.011,11.729 10.171,10.68 
		10.171,10.662 11.491,10.819 11.491,10.225 10.171,10.4 10.171,10.383 11.002,9.29 10.478,8.992 9.944,10.216 9.927,10.216 
		9.385,9.001 8.851,9.307 9.673,10.374 9.673,10.392 8.388,10.225 8.388,10.819 9.682,10.653 	"/>
	<polygon points="13.311,10.671 12.479,11.737 12.978,12.053 13.546,10.819 13.563,10.819 14.088,12.044 14.64,11.729 13.8,10.68 
		13.8,10.662 15.12,10.819 15.12,10.225 13.8,10.4 13.8,10.383 14.631,9.29 14.105,8.992 13.572,10.216 13.555,10.216 13.013,9.001 
		12.479,9.307 13.302,10.374 13.302,10.392 12.017,10.225 12.017,10.819 13.311,10.653 	"/>
</g>
</svg>
