<?xml version="1.0" encoding="utf-8"?>
<svg version="1.1" id="Layer_1" xmlns="http://www.w3.org/2000/svg" xmlns:xlink="http://www.w3.org/1999/xlink" x="0px" y="0px"
	 viewBox="0 0 20 20" style="enable-background:new 0 0 20 20;" xml:space="preserve">
<g>
	<path d="M-14.28,1.26h-17.73c-0.34,0-0.61,0.27-0.61,0.61v11.06c0,0.34,0.27,0.61,0.61,0.61h3.18l0,2.91l5.83-2.91h2.8
		c0.26,0,0.47-0.21,0.47-0.47c0-0.26-0.21-0.47-0.47-0.47h-3.02l-4.66,2.32l0-2.32h-3.8V2.2h17.06v10.39H-21
		c-0.26,0-0.47,0.21-0.47,0.47c0,0.26,0.21,0.47,0.47,0.47h6.72c0.34,0,0.61-0.28,0.61-0.61V1.87C-13.67,1.53-13.94,1.26-14.28,1.26
		z"/>
	<g>
		<path d="M18.21,2.1H2.01c-0.69,0-1.25,0.56-1.25,1.25v9.92c0,0.69,0.56,1.25,1.25,1.25h1.69l0.01,3.6l4.81-3.6h9.7
			c0.69,0,1.25-0.56,1.25-1.25V3.35C19.46,2.66,18.9,2.1,18.21,2.1z M18.26,13.27c0,0.03-0.02,0.05-0.05,0.05H8.11l-3.22,2.4
			l-0.01-2.4l-2.93-0.05L2.01,3.3l16.25,0.05V13.27z"/>
		<path d="M9.86,10.37c-0.3,0-0.53,0.08-0.69,0.23c-0.16,0.15-0.23,0.37-0.23,0.67c0,0.28,0.08,0.5,0.24,0.66
			c0.16,0.15,0.39,0.23,0.68,0.23c0.29,0,0.51-0.08,0.67-0.24c0.16-0.16,0.24-0.38,0.24-0.65c0-0.29-0.08-0.51-0.24-0.66
			C10.38,10.45,10.15,10.37,9.86,10.37z"/>
		<path d="M10.06,5.85c0.3,0,0.54,0.06,0.7,0.18c0.17,0.12,0.25,0.29,0.25,0.52c0,0.2-0.06,0.39-0.17,0.55
			c-0.12,0.16-0.36,0.38-0.73,0.64C9.73,8.01,9.47,8.28,9.32,8.52C9.18,8.77,9.11,9.07,9.11,9.4v0.39h1.39V9.47
			c0-0.21,0.04-0.38,0.13-0.51c0.09-0.13,0.3-0.32,0.64-0.57c0.49-0.35,0.82-0.66,1-0.94c0.18-0.28,0.26-0.61,0.26-1
			c0-0.58-0.21-1.04-0.64-1.38c-0.43-0.34-1-0.52-1.72-0.52c-0.87,0-1.7,0.22-2.48,0.65l0.57,1.15C8.93,6.02,9.53,5.85,10.06,5.85z"
			/>
	</g>
</g>
</svg>
