<?xml version="1.0" encoding="utf-8"?>
<svg version="1.1" id="Layer_1" xmlns="http://www.w3.org/2000/svg" xmlns:xlink="http://www.w3.org/1999/xlink" x="0px" y="0px"
	 width="20px" height="20px" viewBox="0 0 20 20" enable-background="new 0 0 20 20" xml:space="preserve">
<g>
	<path d="M15.536,7.972c-0.264,0-0.477,0.215-0.477,0.478v0.597c0,0.264,0.213,0.477,0.477,0.477
		s0.478-0.213,0.478-0.477V8.449C16.014,8.186,15.8,7.972,15.536,7.972z"/>
	<path d="M14.104,0.49H5.896c-1.053,0-1.909,0.857-1.909,1.909v15.203c0,1.054,0.856,1.909,1.909,1.909h8.209
		c1.053,0,1.909-0.855,1.909-1.909v-7.124c0-0.263-0.214-0.477-0.478-0.477s-0.477,0.214-0.477,0.477v4.594H4.941V5.12H15.06v2.076
		c0,0.263,0.213,0.477,0.477,0.477s0.478-0.214,0.478-0.477V2.399C16.014,1.347,15.156,0.49,14.104,0.49z M15.06,15.739v1.861
		c0,0.527-0.429,0.955-0.955,0.955H5.896c-0.527,0-0.955-0.428-0.955-0.955v-1.861H15.06z M15.06,4.452H4.941V2.399
		c0-0.525,0.428-0.955,0.955-0.955h8.209c0.526,0,0.955,0.429,0.955,0.955V4.452z"/>
	<path d="M10,18.216c0.514,0,0.93-0.418,0.93-0.932c0-0.513-0.417-0.93-0.93-0.93s-0.931,0.417-0.931,0.93
		C9.069,17.798,9.486,18.216,10,18.216z M10,17.022c0.145,0,0.262,0.118,0.262,0.262c0,0.145-0.117,0.264-0.262,0.264
		c-0.146,0-0.263-0.119-0.263-0.264C9.737,17.141,9.854,17.022,10,17.022z"/>
	<path d="M10.528,2.566H7.972c-0.185,0-0.335,0.15-0.335,0.335c0,0.184,0.15,0.333,0.335,0.333h2.556
		c0.185,0,0.333-0.15,0.333-0.333C10.861,2.716,10.712,2.566,10.528,2.566z"/>
	<path d="M12.028,2.566h-0.353c-0.185,0-0.334,0.15-0.334,0.335c0,0.184,0.148,0.333,0.334,0.333h0.353
		c0.184,0,0.334-0.15,0.334-0.333C12.362,2.716,12.212,2.566,12.028,2.566z"/>
</g>
</svg>
