<?xml version="1.0" encoding="utf-8"?>
<svg version="1.1" id="Layer_1" xmlns="http://www.w3.org/2000/svg" xmlns:xlink="http://www.w3.org/1999/xlink" x="0px" y="0px"
	 viewBox="0 0 20 20" style="enable-background:new 0 0 20 20;" xml:space="preserve">
<g>
	<path d="M10.05,0.47c-5.14,0-9.33,4.19-9.33,9.33c0,5.14,4.19,9.33,9.33,9.33c5.14,0,9.33-4.18,9.33-9.33
		C19.38,4.65,15.2,0.47,10.05,0.47z M10.05,17.93c-4.48,0-8.13-3.65-8.13-8.13s3.65-8.13,8.13-8.13s8.13,3.65,8.13,8.13
		S14.54,17.93,10.05,17.93z"/>
	<rect x="8.45" y="12.78" width="1.59" height="1.54"/>
	<path d="M10.13,5.28c-0.59,0-1.09,0.11-1.53,0.32C8.17,5.82,7.84,6.12,7.62,6.5C7.39,6.87,7.28,7.31,7.29,7.8h1.33
		c0-0.41,0.13-0.74,0.4-0.99c0.27-0.25,0.62-0.38,1.06-0.38c0.42,0,0.75,0.12,0.99,0.36c0.24,0.24,0.37,0.57,0.37,1
		c0,0.63-0.2,1.06-0.61,1.29C10.42,9.3,9.86,9.42,9.16,9.42H8.57v2.27h1.32v-1.34c0.9-0.02,1.62-0.24,2.14-0.67
		c0.53-0.43,0.79-1.06,0.79-1.91c0-0.78-0.24-1.39-0.73-1.83C11.6,5.5,10.95,5.28,10.13,5.28z"/>
</g>
</svg>
