<?xml version="1.0" encoding="UTF-8"?>
<svg xmlns="http://www.w3.org/2000/svg" xmlns:xlink="http://www.w3.org/1999/xlink" viewBox="0 0 32 32" version="1.1" width="20px" height="20px">
<g id="surface1">
<path style=" " d="M 3 6 L 3 26 L 29 26 L 29 6 Z M 5 8 L 9 8 L 9 12 L 5 12 Z M 11 8 L 15 8 L 15 12 L 11 12 Z M 17 8 L 21 8 L 21 12 L 17 12 Z M 23 8 L 27 8 L 27 12 L 23 12 Z M 6 9 L 6 11 L 8 11 L 8 9 Z M 12 9 L 12 11 L 14 11 L 14 9 Z M 18 9 L 18 11 L 20 11 L 20 9 Z M 24 9 L 24 11 L 26 11 L 26 9 Z M 5 14 L 9 14 L 9 18 L 5 18 Z M 11 14 L 15 14 L 15 18 L 11 18 Z M 17 14 L 21 14 L 21 18 L 17 18 Z M 23 14 L 27 14 L 27 18 L 23 18 Z M 6 15 L 6 17 L 8 17 L 8 15 Z M 5 20 L 9 20 L 9 24 L 5 24 Z M 11 20 L 15 20 L 15 24 L 11 24 Z M 17 20 L 21 20 L 21 24 L 17 24 Z M 23 20 L 27 20 L 27 24 L 23 24 Z M 6 21 L 6 23 L 8 23 L 8 21 Z "/>
</g>
</svg>
