<?xml version="1.0" encoding="utf-8"?>
<svg version="1.1" id="Layer_1" xmlns="http://www.w3.org/2000/svg" xmlns:xlink="http://www.w3.org/1999/xlink" x="0px" y="0px"
	 viewBox="0 0 50 50" style="enable-background:new 0 0 50 50;" xml:space="preserve">
<g>
	<path d="M3,5C2.4,5,2,5.4,2,6v17.5V34c0,0.6,0.4,1,1,1h34c0.6,0,1-0.4,1-1V6c0-0.6-0.4-1-1-1H3z M4,7h3v3H4V7z M9,7h4v3H9V7z M15,7
		h4v3h-4V7z M21,7h4v3h-4V7z M27,7h4v3h-4V7z M33,7h3v3h-3V7z M40,10v2h1v26H9v-1H7v2c0,0.6,0.4,1,1,1h34c0.6,0,1-0.4,1-1V11
		c0-0.6-0.4-1-1-1H40z M4,12h32v16H4v-4.5V12z M17,15c-0.6,0-1,0.4-1,1c0,0,0,0,0,0v8c0,0.6,0.4,1,1,1c0.2,0,0.3,0,0.5-0.1l7-4
		c0.5-0.3,0.6-0.9,0.4-1.4c-0.1-0.2-0.2-0.3-0.4-0.4l-7-4C17.4,15,17.2,15,17,15z M45,15v2h1v26H14v-1h-2v2c0,0.6,0.4,1,1,1h34
		c0.6,0,1-0.4,1-1V16c0-0.6-0.4-1-1-1H45z M18,17.7l4,2.3l-4,2.3V17.7z M4,30h3v3H4V30z M9,30h4v3H9V30z M15,30h4v3h-4V30z M21,30h4
		v3h-4V30z M27,30h4v3h-4V30z M33,30h3v3h-3V30z"/>
</g>
</svg>
