<?xml version="1.0" encoding="utf-8"?>
<!-- Generator: Adobe Illustrator 22.0.1, SVG Export Plug-In . SVG Version: 6.00 Build 0)  -->
<svg version="1.1" id="Layer_1" xmlns="http://www.w3.org/2000/svg" xmlns:xlink="http://www.w3.org/1999/xlink" x="0px" y="0px"
     viewBox="0 0 20 20" style="enable-background:new 0 0 20 20;" xml:space="preserve">
<g>
    <path d="M5.1,11.3l5.5,4.4H1V14L5.1,11.3 M5.2,10.1L0,13.4v3.3h13.5L5.2,10.1L5.2,10.1z"/>
</g>
<g>
    <path d="M19,4.3v11.5H1V4.3H19 M20,3.3H0v13.5h20V3.3L20,3.3z"/>
</g>
<rect x="15.2" y="3.9" width="1" height="12.2"/>
<g>
    <path d="M3.7,5C2.7,5,1.8,5.9,1.8,6.9s0.9,1.9,1.9,1.9S5.6,8,5.6,6.9S4.8,5,3.7,5L3.7,5z"/>
</g>
<circle cx="15.7" cy="10" r="1.9"/>
</svg>