<?xml version="1.0" encoding="utf-8"?>
<!-- Generator: Adobe Illustrator 22.0.1, SVG Export Plug-In . SVG Version: 6.00 Build 0)  -->
<svg version="1.1" id="Layer_1" xmlns="http://www.w3.org/2000/svg" xmlns:xlink="http://www.w3.org/1999/xlink" x="0px" y="0px"
	 viewBox="0 0 24 24" style="enable-background:new 0 0 24 24;" xml:space="preserve">
<g>
	<path d="M20.8,7.3h-3.3v-2c0-0.7-0.6-1.3-1.3-1.3h-3.5c-0.2,0-0.4,0.1-0.6,0.2C11.9,4.1,11.7,4,11.5,4H8C7.8,4,7.6,4.1,7.4,4.2
		C7.2,4.1,7,4,6.8,4H3.3C2.6,4,2,4.6,2,5.3v2v1.3v10.3C2,19.4,2.6,20,3.3,20h17.5c0.7,0,1.3-0.6,1.3-1.3V8.5
		C22,7.8,21.4,7.3,20.8,7.3z M16.3,5.3v2h-3.5v-2H16.3z M11.5,5.3v2H8v-2H11.5z M20.8,18.8H3.3v-7V8.5V7.3V7V5.3h3.5V7v0.3v1.3H8
		h3.5h1.3h4.8h3.3V18.8z"/>
</g>
</svg>
