<?xml version="1.0" encoding="utf-8"?>
<!-- Generator: Adobe Illustrator 22.0.1, SVG Export Plug-In . SVG Version: 6.00 Build 0)  -->
<svg version="1.1" id="Layer_1" xmlns="http://www.w3.org/2000/svg" xmlns:xlink="http://www.w3.org/1999/xlink" x="0px" y="0px"
     viewBox="0 0 20 20" style="enable-background:new 0 0 20 20;" xml:space="preserve">
<g>
    <path d="M0,5.8v8.3h20V5.8H0z M19,13.2H1V6.8h18V13.2z"/>
    <path d="M4,11.5c0.3,0,0.7-0.1,0.9-0.2L6,12.4l0.7-0.7l-1.1-1.1C6.1,9.8,6,8.9,5.4,8.2C5,7.8,4.5,7.6,4,7.6c-0.5,0-1,0.2-1.4,0.6
        c-0.8,0.8-0.8,2,0,2.8C3,11.3,3.5,11.5,4,11.5z M3.3,8.9C3.5,8.7,3.7,8.6,4,8.6c0.3,0,0.5,0.1,0.7,0.3c0.4,0.4,0.4,1,0,1.4
        c-0.2,0.2-0.4,0.3-0.7,0.3c-0.3,0-0.5-0.1-0.7-0.3C2.9,9.9,2.9,9.3,3.3,8.9z"/>
</g>
</svg>