<?xml version="1.0" encoding="utf-8"?>
<svg version="1.1" id="Layer_1" xmlns="http://www.w3.org/2000/svg" xmlns:xlink="http://www.w3.org/1999/xlink" x="0px" y="0px"
	 width="20px" height="20px" viewBox="0 0 20 20" enable-background="new 0 0 20 20" xml:space="preserve">
<g>
	<path d="M14.518,5.197H5.811c-1.838,0-3.334,1.496-3.334,3.334v2.937c0,1.838,1.496,3.334,3.334,3.334h8.707
		c1.838,0,3.334-1.496,3.334-3.334V8.532C17.852,6.693,16.355,5.197,14.518,5.197z M16.852,11.469c0,1.287-1.047,2.334-2.334,2.334
		H5.811c-1.287,0-2.334-1.047-2.334-2.334V8.532c0-1.287,1.047-2.334,2.334-2.334h8.707c1.287,0,2.334,1.047,2.334,2.334V11.469z"/>
	<path d="M9.425,7.511c-0.154-0.089-0.346-0.089-0.5,0C8.771,7.6,8.675,7.765,8.675,7.944v4.113c0,0.18,0.095,0.344,0.25,0.434
		c0.077,0.045,0.164,0.066,0.25,0.066s0.172-0.021,0.25-0.066l3.562-2.056c0.154-0.089,0.25-0.254,0.25-0.433
		s-0.096-0.344-0.25-0.433L9.425,7.511z M9.675,11.191V8.81l2.062,1.191L9.675,11.191z"/>
</g>
<g>
	<g>
		<path d="M49.17,24.742c-0.118,0-0.236-0.041-0.332-0.125l-3.281-2.912c-0.206-0.184-0.226-0.498-0.042-0.705
			c0.183-0.207,0.498-0.225,0.706-0.043l3.281,2.912c0.206,0.184,0.226,0.498,0.042,0.705C49.445,24.686,49.308,24.742,49.17,24.742
			z"/>
	</g>
	<g>
		<path d="M43.083,24.631c-0.128,0-0.256-0.049-0.354-0.146c-0.195-0.195-0.195-0.512,0-0.707l2.806-2.799
			c0.195-0.195,0.512-0.195,0.707,0s0.195,0.512,0,0.707l-2.806,2.799C43.339,24.582,43.211,24.631,43.083,24.631z"/>
	</g>
	<g>
		<path d="M44.56,26.498c-0.123,0-0.246-0.045-0.343-0.135l-3.161-2.971c-0.201-0.189-0.211-0.506-0.021-0.707
			c0.19-0.201,0.506-0.211,0.707-0.021l3.161,2.971c0.201,0.189,0.211,0.506,0.021,0.707C44.825,26.445,44.692,26.498,44.56,26.498z
			"/>
	</g>
	<g>
		<path d="M36.829,27.475c-0.14,0-0.279-0.059-0.378-0.172c-0.181-0.209-0.158-0.525,0.051-0.705l4.569-3.947
			c0.209-0.182,0.524-0.158,0.705,0.051s0.158,0.525-0.051,0.705l-4.569,3.947C37.062,27.436,36.945,27.475,36.829,27.475z"/>
	</g>
</g>
<g>
	<path d="M39.103,23.012c-0.928,0-1.682-0.754-1.682-1.68c0-0.928,0.754-1.682,1.682-1.682s1.682,0.754,1.682,1.682
		C40.784,22.258,40.03,23.012,39.103,23.012z M39.103,20.65c-0.376,0-0.682,0.307-0.682,0.682s0.306,0.68,0.682,0.68
		s0.682-0.305,0.682-0.68S39.479,20.65,39.103,20.65z"/>
</g>
<path fill="none" stroke="#000000" stroke-miterlimit="10" d="M51.062,28.921c0,0.188-0.185,0.34-0.41,0.34H35.092
	c-0.227,0-0.411-0.152-0.411-0.34V18.205c0-0.188,0.185-0.34,0.411-0.34h15.561c0.226,0,0.41,0.152,0.41,0.34V28.921z"/>
<g>
	<path d="M-11.53,5.26c-2.926,0-5.307,2.381-5.307,5.309c0,2.757,4.675,10.868,4.874,11.212l0.433,0.748l0.433-0.748
		c0.199-0.344,4.876-8.455,4.876-11.212C-6.222,7.641-8.604,5.26-11.53,5.26z M-11.53,20.519c-1.511-2.699-4.307-8.081-4.307-9.95
		c0-2.376,1.932-4.309,4.307-4.309c2.376,0,4.309,1.933,4.309,4.309C-7.222,12.437-10.019,17.819-11.53,20.519z"/>
	<path d="M-11.53,8.25c-1.378,0-2.499,1.122-2.499,2.5s1.121,2.501,2.499,2.501c1.38,0,2.502-1.122,2.502-2.501
		S-10.15,8.25-11.53,8.25z M-11.53,12.251c-0.827,0-1.499-0.674-1.499-1.501s0.672-1.5,1.499-1.5c0.828,0,1.502,0.673,1.502,1.5
		S-10.702,12.251-11.53,12.251z"/>
</g>
<g>
	<path d="M-2.614-3.403h-14.725c-0.432,0-0.783,0.376-0.783,0.839v4.464c0,0.462,0.352,0.838,0.783,0.838h14.725
		c0.432,0,0.783-0.376,0.783-0.838v-4.464C-1.831-3.027-2.183-3.403-2.614-3.403z M-2.831,1.737h-14.291v-4.141h14.291V1.737z"/>
	<polygon points="-13.864,-0.176 -14.694,0.891 -14.196,1.206 -13.627,-0.027 -13.61,-0.027 -13.085,1.197 -12.535,0.882 
		-13.374,-0.167 -13.374,-0.185 -12.054,-0.027 -12.054,-0.622 -13.374,-0.446 -13.374,-0.464 -12.543,-1.557 -13.068,-1.854 
		-13.602,-0.63 -13.619,-0.63 -14.161,-1.846 -14.694,-1.54 -13.873,-0.473 -13.873,-0.455 -15.158,-0.622 -15.158,-0.027 
		-13.864,-0.193 	"/>
	<polygon points="-10.235,-0.176 -11.066,0.891 -10.567,1.206 -9.999,-0.027 -9.981,-0.027 -9.457,1.197 -8.906,0.882 
		-9.746,-0.167 -9.746,-0.185 -8.426,-0.027 -8.426,-0.622 -9.746,-0.446 -9.746,-0.464 -8.915,-1.557 -9.439,-1.854 -9.973,-0.63 
		-9.99,-0.63 -10.532,-1.846 -11.066,-1.54 -10.244,-0.473 -10.244,-0.455 -11.529,-0.622 -11.529,-0.027 -10.235,-0.193 	"/>
	<polygon points="-6.606,-0.176 -7.438,0.891 -6.939,1.206 -6.371,-0.027 -6.354,-0.027 -5.829,1.197 -5.277,0.882 -6.117,-0.167 
		-6.117,-0.185 -4.797,-0.027 -4.797,-0.622 -6.117,-0.446 -6.117,-0.464 -5.286,-1.557 -5.812,-1.854 -6.345,-0.63 -6.362,-0.63 
		-6.904,-1.846 -7.438,-1.54 -6.615,-0.473 -6.615,-0.455 -7.9,-0.622 -7.9,-0.027 -6.606,-0.193 	"/>
</g>
</svg>
