<?xml version="1.0"?>
<svg xmlns="http://www.w3.org/2000/svg" xmlns:xlink="http://www.w3.org/1999/xlink" version="1.1" viewBox="0 0 224 224" width="20px" height="20px"><g fill-rule="nonzero" stroke="none" stroke-width="1" stroke-linecap="butt" stroke-linejoin="miter" stroke-miterlimit="10" stroke-dasharray="" stroke-dashoffset="0" font-family="none" font-weight="none" font-size="none" text-anchor="none" style="mix-blend-mode: normal"><path d="M0,224v-224h224v224z" fill="none"/><g><g id="surface1"><path d="M53.76,26.88c-7.6125,0 -13.44,5.8275 -13.44,13.44v134.4l8.96,-8.96v-125.44c0,-2.695 1.785,-4.48 4.48,-4.48h116.48c2.695,0 4.48,1.785 4.48,4.48v143.36c0,2.695 -1.785,4.48 -4.48,4.48h-98.56l-8.96,8.96h107.52c7.6125,0 13.44,-5.8275 13.44,-13.44v-143.36c0,-7.6125 -5.8275,-13.44 -13.44,-13.44zM71.68,112v8.96h38.5l-69.44,69.44l6.3,6.3l69.44,-69.44v38.5h8.96v-53.76z"/></g></g></g></svg>
