<?xml version="1.0"?>
<svg xmlns="http://www.w3.org/2000/svg" xmlns:xlink="http://www.w3.org/1999/xlink" version="1.1" viewBox="0 0 224 224" width="20px" height="20px"><g fill-rule="nonzero" stroke="none" stroke-width="1" stroke-linecap="butt" stroke-linejoin="miter" stroke-miterlimit="10" stroke-dasharray="" stroke-dashoffset="0" font-family="none" font-weight="none" font-size="none" text-anchor="none" style="mix-blend-mode: normal"><path d="M0,224v-224h224v224z" fill="none"/><g id="original-icon"><g id="surface1"><path d="M76.16,8.96c-14.7875,0 -26.88,12.0925 -26.88,26.88c0,8.89 4.375,16.8 11.06,21.7c-3.5875,1.8025 -6.86,4.13 -9.66,7c-3.255,-1.155 -6.72,-1.82 -10.36,-1.82c-17.2725,0 -31.36,14.0875 -31.36,31.36c0,10.9725 5.6875,20.72 14.28,26.32c-13.685,6.475 -23.24,20.335 -23.24,36.4v20.16c-0.0175,1.435 0.665,2.7825 1.82,3.64c0,0 3.1675,2.24 9.24,4.06c6.0725,1.82 15.4525,3.5 29.26,3.5c13.8075,0 23.1875,-1.68 29.26,-3.5c0.7875,-0.2275 1.4175,-0.455 2.1,-0.7v19.88c-0.0175,1.435 0.665,2.7825 1.82,3.64c0,0 3.1675,2.24 9.24,4.06c6.0725,1.82 15.4525,3.5 29.26,3.5c13.8075,0 23.1875,-1.68 29.26,-3.5c6.0725,-1.82 9.24,-4.06 9.24,-4.06c1.155,-0.8575 1.8375,-2.205 1.82,-3.64v-19.88c0.6825,0.245 1.3125,0.4725 2.1,0.7c6.0725,1.82 15.4525,3.5 29.26,3.5c13.8075,0 23.1875,-1.68 29.26,-3.5c6.0725,-1.82 9.24,-4.06 9.24,-4.06c1.155,-0.8575 1.8375,-2.205 1.82,-3.64v-20.16c0,-16.065 -9.555,-29.925 -23.24,-36.4c8.5925,-5.6 14.28,-15.3475 14.28,-26.32c0,-17.2725 -14.0875,-31.36 -31.36,-31.36c-3.9025,0 -7.6125,0.7875 -11.06,2.1c-2.8175,-2.9575 -6.1425,-5.425 -9.8,-7.28c6.685,-4.9 11.06,-12.81 11.06,-21.7c0,-14.7875 -12.0925,-26.88 -26.88,-26.88c-14.7875,0 -26.88,12.0925 -26.88,26.88c0,8.89 4.375,16.8 11.06,21.7c-10.29,5.075 -17.815,14.84 -19.6,26.6c-1.785,-11.7775 -9.2925,-21.5425 -19.6,-26.6c6.685,-4.9 11.06,-12.81 11.06,-21.7c0,-14.7875 -12.0925,-26.88 -26.88,-26.88zM76.16,17.92c9.9575,0 17.92,7.9625 17.92,17.92c0,9.9575 -7.9625,17.92 -17.92,17.92c-9.9575,0 -17.92,-7.9625 -17.92,-17.92c0,-9.9575 7.9625,-17.92 17.92,-17.92zM147,17.92c9.9575,0 17.92,7.9625 17.92,17.92c0,9.9575 -7.9625,17.92 -17.92,17.92c-9.9575,0 -17.92,-7.9625 -17.92,-17.92c0,-9.9575 7.9625,-17.92 17.92,-17.92zM76.16,62.72c15.1025,0 26.88,11.7775 26.88,26.88v1.4c-12.88,3.9025 -22.4,15.8375 -22.4,29.96c0,10.9725 5.6875,20.72 14.28,26.32c-5.6175,2.66 -10.43,6.5625 -14.28,11.34v-1.82c0,-16.065 -9.555,-29.925 -23.24,-36.4c8.5925,-5.6 14.28,-15.3475 14.28,-26.32c0,-10.22 -4.9875,-19.32 -12.6,-25.06c4.655,-3.9725 10.43,-6.3 17.08,-6.3zM147,62.72c6.8425,0 12.7925,2.3975 17.5,6.58c-7.385,5.74 -12.18,14.7525 -12.18,24.78c0,10.9725 5.6875,20.72 14.28,26.32c-13.685,6.475 -23.24,20.335 -23.24,36.4v1.82c-3.85,-4.7775 -8.6625,-8.68 -14.28,-11.34c8.5925,-5.6 14.28,-15.3475 14.28,-26.32c0,-14.4375 -9.905,-26.635 -23.24,-30.24v-1.12c0,-15.1025 11.7775,-26.88 26.88,-26.88zM40.32,71.68c3.4825,0 6.72,0.84 9.66,2.24c7.525,3.605 12.74,11.2175 12.74,20.16c0,12.425 -9.975,22.4 -22.4,22.4c-12.425,0 -22.4,-9.975 -22.4,-22.4c0,-12.425 9.975,-22.4 22.4,-22.4zM183.68,71.68c12.425,0 22.4,9.975 22.4,22.4c0,12.425 -9.975,22.4 -22.4,22.4c-12.425,0 -22.4,-9.975 -22.4,-22.4c0,-8.2775 4.4275,-15.435 11.06,-19.32c0.035,-0.0175 0.105,0.0175 0.14,0c0.665,-0.14 1.2775,-0.42 1.82,-0.84c0.1575,-0.07 0.2625,-0.21 0.42,-0.28c0.0875,-0.035 0.1925,-0.0875 0.28,-0.14c2.6775,-1.1375 5.5825,-1.82 8.68,-1.82zM112,98.56c12.425,0 22.4,9.975 22.4,22.4c0,12.425 -9.975,22.4 -22.4,22.4c-12.425,0 -22.4,-9.975 -22.4,-22.4c0,-12.425 9.975,-22.4 22.4,-22.4zM40.32,125.44c17.2725,0 31.36,14.0875 31.36,31.36v17.22c-0.665,0.4025 -0.9275,0.8575 -4.62,1.96c-5.1275,1.54 -13.6675,3.22 -26.74,3.22c-13.0725,0 -21.6125,-1.68 -26.74,-3.22c-3.6925,-1.1025 -3.955,-1.5575 -4.62,-1.96v-17.22c0,-17.2725 14.0875,-31.36 31.36,-31.36zM183.68,125.44c17.2725,0 31.36,14.0875 31.36,31.36v17.22c-0.665,0.4025 -0.9275,0.8575 -4.62,1.96c-5.1275,1.54 -13.6675,3.22 -26.74,3.22c-13.0725,0 -21.6125,-1.68 -26.74,-3.22c-3.6925,-1.1025 -3.955,-1.5575 -4.62,-1.96v-17.22c0,-17.2725 14.0875,-31.36 31.36,-31.36zM112,152.32c17.2725,0 31.36,14.0875 31.36,31.36v17.22c-0.665,0.4025 -0.9275,0.8575 -4.62,1.96c-5.1275,1.54 -13.6675,3.22 -26.74,3.22c-13.0725,0 -21.6125,-1.68 -26.74,-3.22c-3.6925,-1.1025 -3.955,-1.5575 -4.62,-1.96v-17.22c0,-17.2725 14.0875,-31.36 31.36,-31.36z"/></g></g></g></svg>
