<?xml version="1.0" encoding="utf-8"?>
<svg version="1.1" id="Layer_1" xmlns="http://www.w3.org/2000/svg" xmlns:xlink="http://www.w3.org/1999/xlink" x="0px" y="0px"
	 viewBox="0 0 20 20" style="enable-background:new 0 0 20 20;" xml:space="preserve">
<g>
	<path d="M10.07,9.79C9.94,9.62,9.7,9.59,9.53,9.72l-3.22,2.52c-0.17,0.13-0.2,0.37-0.07,0.54c0.11,0.14,0.29,0.18,0.45,0.12
		c0.03-0.01,0.06-0.03,0.09-0.05l3.22-2.52C10.17,10.2,10.2,9.96,10.07,9.79z"/>
	<path d="M9.52,11.98c-0.58-0.24-1.24,0.04-1.48,0.61c-0.12,0.28-0.12,0.59,0,0.87c0.12,0.28,0.33,0.5,0.61,0.61
		c0.29,0.12,0.6,0.11,0.87,0c0.27-0.11,0.49-0.32,0.61-0.61C10.37,12.88,10.1,12.22,9.52,11.98z M9.42,13.16
		c-0.08,0.19-0.29,0.27-0.48,0.2c-0.09-0.04-0.16-0.11-0.2-0.2c-0.04-0.09-0.04-0.19,0-0.28c0.04-0.09,0.11-0.16,0.2-0.2
		c0.09-0.04,0.19-0.04,0.28,0C9.41,12.76,9.5,12.98,9.42,13.16z"/>
	<path d="M7.34,10.4c0.29,0.12,0.6,0.11,0.87,0c0.27-0.11,0.49-0.32,0.61-0.61c0.24-0.58-0.04-1.24-0.61-1.48
		c-0.28-0.12-0.59-0.12-0.87,0c-0.28,0.12-0.5,0.33-0.61,0.61C6.49,9.5,6.76,10.16,7.34,10.4z M7.44,9.22
		c0.04-0.09,0.11-0.16,0.2-0.2c0.09-0.04,0.19-0.04,0.28,0C8.1,9.1,8.19,9.31,8.11,9.5c-0.08,0.19-0.29,0.27-0.48,0.2
		C7.45,9.62,7.36,9.4,7.44,9.22z"/>
	<path d="M19.2,7.48l-3.64-2.25l-1.2-3.81l-0.13-0.24c-0.47-0.6-1.34-0.7-1.94-0.23L0.78,10.03c-0.6,0.47-0.7,1.34-0.23,1.94
		l4.97,6.3c0.27,0.34,0.68,0.52,1.09,0.52c0.3,0,0.6-0.1,0.85-0.3l11.5-9.08C19.57,8.94,19.67,8.07,19.2,7.48z M6.63,17.24
		l-4.82-6.1l11.23-8.86l1.25,3.96l3.57,2.14L6.63,17.24z"/>
	<path d="M12.59,6.46c-0.48,0-0.87,0.39-0.87,0.87s0.39,0.87,0.87,0.87c0.48,0,0.87-0.39,0.87-0.87S13.06,6.46,12.59,6.46z"/>
</g>
</svg>
