<?xml version="1.0" encoding="utf-8"?>
<svg version="1.1" id="Layer_1" xmlns="http://www.w3.org/2000/svg" xmlns:xlink="http://www.w3.org/1999/xlink" x="0px" y="0px"
	 width="20px" height="20px" viewBox="0 0 20 20" enable-background="new 0 0 20 20" xml:space="preserve">
<g>
	<path d="M6.83-11.636h-8.707c-1.838,0-3.334,1.496-3.334,3.334v2.937c0,1.838,1.496,3.334,3.334,3.334H6.83
		c1.838,0,3.334-1.496,3.334-3.334v-2.937C10.164-10.14,8.668-11.636,6.83-11.636z M9.164-5.364c0,1.287-1.047,2.334-2.334,2.334
		h-8.707c-1.287,0-2.334-1.047-2.334-2.334v-2.937c0-1.287,1.047-2.334,2.334-2.334H6.83c1.287,0,2.334,1.047,2.334,2.334V-5.364z"
		/>
	<path d="M1.738-9.322c-0.154-0.089-0.346-0.089-0.5,0c-0.155,0.089-0.25,0.254-0.25,0.433v4.113c0,0.18,0.095,0.344,0.25,0.434
		c0.077,0.045,0.164,0.066,0.25,0.066s0.172-0.021,0.25-0.066L5.3-6.398c0.154-0.089,0.25-0.254,0.25-0.433S5.454-7.175,5.3-7.265
		L1.738-9.322z M1.988-5.642v-2.381L4.05-6.832L1.988-5.642z"/>
</g>
<g>
	<path d="M3.958,13.631c0.116,0,0.232-0.039,0.327-0.121l4.228-3.653l2.833,2.663c0.097,0.09,0.22,0.135,0.343,0.135
		c0.133,0,0.266-0.053,0.364-0.156c0.189-0.201,0.18-0.518-0.021-0.707l-1.349-1.268l2.355-2.35l2.929,2.599
		c0.096,0.085,0.214,0.126,0.332,0.126c0.138,0,0.275-0.057,0.374-0.169c0.184-0.207,0.164-0.521-0.042-0.705L13.35,7.112
		c-0.024-0.021-0.054-0.031-0.081-0.046c-0.025-0.016-0.05-0.035-0.078-0.045c-0.031-0.012-0.063-0.014-0.096-0.019
		c-0.031-0.005-0.061-0.013-0.092-0.012c-0.034,0.001-0.066,0.011-0.1,0.02c-0.029,0.007-0.058,0.01-0.085,0.021
		c-0.033,0.014-0.061,0.038-0.09,0.06c-0.021,0.015-0.045,0.024-0.064,0.043l-2.71,2.704L8.87,8.819
		c-0.02-0.018-0.043-0.026-0.064-0.04C8.778,8.76,8.753,8.741,8.723,8.728S8.663,8.709,8.631,8.703
		C8.6,8.696,8.57,8.688,8.538,8.688c-0.032,0-0.061,0.006-0.092,0.011C8.413,8.704,8.382,8.708,8.351,8.72
		C8.32,8.732,8.293,8.751,8.264,8.77C8.243,8.783,8.22,8.789,8.2,8.806l-4.569,3.948c-0.209,0.18-0.231,0.496-0.051,0.705
		C3.679,13.572,3.818,13.631,3.958,13.631z"/>
	<path d="M6.231,9.167c0.928,0,1.682-0.754,1.682-1.68c0-0.928-0.754-1.682-1.682-1.682S4.55,6.56,4.55,7.487
		C4.55,8.413,5.304,9.167,6.231,9.167z M6.231,6.806c0.376,0,0.682,0.307,0.682,0.682s-0.306,0.68-0.682,0.68S5.55,7.862,5.55,7.487
		S5.855,6.806,6.231,6.806z"/>
	<path d="M17.781,3.521H2.221c-0.502,0-0.911,0.377-0.911,0.84v10.716c0,0.463,0.409,0.84,0.911,0.84h15.561
		c0.502,0,0.91-0.377,0.91-0.84V4.36C18.691,3.897,18.283,3.521,17.781,3.521z M17.691,14.916H2.31V4.521h15.382V14.916z"/>
</g>
<g>
	<path d="M-11.53,5.26c-2.926,0-5.307,2.381-5.307,5.309c0,2.757,4.675,10.868,4.874,11.212l0.433,0.748l0.433-0.748
		c0.199-0.344,4.876-8.455,4.876-11.212C-6.222,7.641-8.604,5.26-11.53,5.26z M-11.53,20.519c-1.511-2.699-4.307-8.081-4.307-9.95
		c0-2.376,1.932-4.309,4.307-4.309c2.376,0,4.309,1.933,4.309,4.309C-7.222,12.437-10.019,17.819-11.53,20.519z"/>
	<path d="M-11.53,8.25c-1.378,0-2.499,1.122-2.499,2.5s1.121,2.501,2.499,2.501c1.38,0,2.502-1.122,2.502-2.501
		S-10.15,8.25-11.53,8.25z M-11.53,12.251c-0.827,0-1.499-0.674-1.499-1.501s0.672-1.5,1.499-1.5c0.828,0,1.502,0.673,1.502,1.5
		S-10.702,12.251-11.53,12.251z"/>
</g>
<g>
	<path d="M-2.614-3.403h-14.725c-0.432,0-0.783,0.376-0.783,0.839v4.464c0,0.462,0.352,0.838,0.783,0.838h14.725
		c0.432,0,0.783-0.376,0.783-0.838v-4.464C-1.831-3.027-2.183-3.403-2.614-3.403z M-2.831,1.737h-14.291v-4.141h14.291V1.737z"/>
	<polygon points="-13.864,-0.176 -14.694,0.891 -14.196,1.206 -13.627,-0.027 -13.61,-0.027 -13.085,1.197 -12.535,0.882 
		-13.374,-0.167 -13.374,-0.185 -12.054,-0.027 -12.054,-0.622 -13.374,-0.446 -13.374,-0.464 -12.543,-1.557 -13.068,-1.854 
		-13.602,-0.63 -13.619,-0.63 -14.161,-1.846 -14.694,-1.54 -13.873,-0.473 -13.873,-0.455 -15.158,-0.622 -15.158,-0.027 
		-13.864,-0.193 	"/>
	<polygon points="-10.235,-0.176 -11.066,0.891 -10.567,1.206 -9.999,-0.027 -9.981,-0.027 -9.457,1.197 -8.906,0.882 
		-9.746,-0.167 -9.746,-0.185 -8.426,-0.027 -8.426,-0.622 -9.746,-0.446 -9.746,-0.464 -8.915,-1.557 -9.439,-1.854 -9.973,-0.63 
		-9.99,-0.63 -10.532,-1.846 -11.066,-1.54 -10.244,-0.473 -10.244,-0.455 -11.529,-0.622 -11.529,-0.027 -10.235,-0.193 	"/>
	<polygon points="-6.606,-0.176 -7.438,0.891 -6.939,1.206 -6.371,-0.027 -6.354,-0.027 -5.829,1.197 -5.277,0.882 -6.117,-0.167 
		-6.117,-0.185 -4.797,-0.027 -4.797,-0.622 -6.117,-0.446 -6.117,-0.464 -5.286,-1.557 -5.812,-1.854 -6.345,-0.63 -6.362,-0.63 
		-6.904,-1.846 -7.438,-1.54 -6.615,-0.473 -6.615,-0.455 -7.9,-0.622 -7.9,-0.027 -6.606,-0.193 	"/>
</g>
</svg>
