<?xml version="1.0"?>
<svg xmlns="http://www.w3.org/2000/svg" xmlns:xlink="http://www.w3.org/1999/xlink" version="1.1" viewBox="0 0 224 224" width="20px" height="20px"><g fill-rule="nonzero" stroke="none" stroke-width="1" stroke-linecap="butt" stroke-linejoin="miter" stroke-miterlimit="10" stroke-dasharray="" stroke-dashoffset="0" font-family="none" font-weight="none" font-size="none" text-anchor="none" style="mix-blend-mode: normal"><path d="M0,224v-224h224v224z" fill="none"/><g id="original-icon"><path d="M13.44,35.84c-2.47413,0.00025 -4.47975,2.00587 -4.48,4.48v143.36c0.00025,2.47413 2.00587,4.47975 4.48,4.48h170.24c0.48166,0.00085 0.9603,-0.07597 1.4175,-0.2275l26.88,-8.96c1.82981,-0.61046 3.06351,-2.32355 3.0625,-4.2525v-125.44c0.00101,-1.92895 -1.23269,-3.64204 -3.0625,-4.2525l-26.88,-8.96c-0.4572,-0.15153 -0.93584,-0.22835 -1.4175,-0.2275zM17.92,44.8h161.28v134.4h-161.28zM188.16,46.5325l17.92,5.97625v118.9825l-17.92,5.9675zM26.88,53.76v4.48v31.36h35.84v-35.84zM35.84,62.72h17.92v17.92h-17.92zM53.76,134.4v8.96h112v-8.96zM53.76,152.32v8.96h112v-8.96z"/></g></g></svg>
