<?xml version="1.0"?>
<svg xmlns="http://www.w3.org/2000/svg" xmlns:xlink="http://www.w3.org/1999/xlink" version="1.1" viewBox="0 0 224 224" width="20px" height="20px"><g fill-rule="nonzero" stroke="none" stroke-width="1" stroke-linecap="butt" stroke-linejoin="miter" stroke-miterlimit="10" stroke-dasharray="" stroke-dashoffset="0" font-family="none" font-weight="none" font-size="none" text-anchor="none" style="mix-blend-mode: normal"><path d="M0,224v-224h224v224z" fill="none"/><g><g id="surface1"><path d="M91,28v14h42v-14zM112,49c-42.4375,0 -77,34.5625 -77,77c0,42.4375 34.5625,77 77,77c42.4375,0 77,-34.5625 77,-77c0,-20.42578 -7.95703,-39.12891 -21,-52.9375l12.03125,-12.03125l-10.0625,-10.0625l-12.6875,12.6875c-12.6875,-9.24218 -28.41016,-14.65625 -45.28125,-14.65625zM112,63c34.86328,0 63,28.13672 63,63c0,34.86328 -28.13672,63 -63,63c-34.86328,0 -63,-28.13672 -63,-63c0,-34.86328 28.13672,-63 63,-63zM105,77v36.96875c-4.18359,2.43359 -7,6.86328 -7,12.03125c0,5.16797 2.81641,9.59766 7,12.03125v8.96875h14v-8.96875c4.18359,-2.43359 7,-6.86328 7,-12.03125c0,-5.16797 -2.81641,-9.59766 -7,-12.03125v-36.96875z"/></g></g></g></svg>
