<?xml version="1.0" encoding="UTF-8"?>
<svg xmlns="http://www.w3.org/2000/svg" xmlns:xlink="http://www.w3.org/1999/xlink" viewBox="0 0 32 32" version="1.1" width="20px" height="20px">
<g id="surface1">
<path style=" " d="M 3 5 L 3 23 L 8 23 L 8 28.09375 L 9.625 26.78125 L 14.34375 23 L 29 23 L 29 5 Z M 5 7 L 27 7 L 27 21 L 13.65625 21 L 13.375 21.21875 L 10 23.90625 L 10 21 L 5 21 Z M 10 10 L 10 15 L 13 15 C 13 16.117188 12.117188 17 11 17 L 11 19 C 13.199219 19 15 17.199219 15 15 L 15 10 Z M 17 10 L 17 15 L 20 15 C 20 16.117188 19.117188 17 18 17 L 18 19 C 20.199219 19 22 17.199219 22 15 L 22 10 Z M 12 12 L 13 12 L 13 13 L 12 13 Z M 19 12 L 20 12 L 20 13 L 19 13 Z "/>
</g>
</svg>
