<?xml version="1.0"?>
<svg xmlns="http://www.w3.org/2000/svg" xmlns:xlink="http://www.w3.org/1999/xlink" version="1.1" viewBox="0 0 224 224" width="20px" height="20px"><g fill-rule="nonzero" stroke="none" stroke-width="1" stroke-linecap="butt" stroke-linejoin="miter" stroke-miterlimit="10" stroke-dasharray="" stroke-dashoffset="0" font-family="none" font-weight="none" font-size="none" text-anchor="none" style="mix-blend-mode: normal"><path d="M0,224v-224h224v224z" fill="none"/><g><path d="M112,28c-46.30901,0 -84,37.69099 -84,84c0,46.309 37.69099,84 84,84c46.309,0 84,-37.691 84,-84c0,-46.30901 -37.691,-84 -84,-84zM112,42c38.74284,0 70,31.25716 70,70c0,38.74284 -31.25716,70 -70,70c-38.74284,0 -70,-31.25716 -70,-70c0,-38.74284 31.25716,-70 70,-70zM77,77c-11.51479,0 -21,9.48521 -21,21v3.5h14v-3.5c0,-3.95521 3.04479,-7 7,-7h14c3.95521,0 7,3.04479 7,7c0,3.95521 -3.04479,7 -7,7h-14v14h14.27343c3.87346,0 6.72657,2.78899 6.72657,6.57617v0.35547c0,4.04876 -3.04901,7.06836 -7,7.06836h-14c-3.95521,0 -7,-3.04479 -7,-7v-3.5h-14v3.5c0,11.51479 9.48521,21 21,21h14c11.51901,0 21,-9.52111 21,-21.06836v-0.35547c0,-5.71857 -2.40402,-10.88552 -6.2207,-14.61524c1.32216,-1.81492 2.4492,-3.81596 3.30859,-5.96093h2.91211v-7c0,-11.51479 -9.48521,-21 -21,-21zM119,77v70h21c15.38134,0 28,-12.61866 28,-28v-14c0,-15.38134 -12.61866,-28 -28,-28zM133,91h7c7.81666,0 14,6.18334 14,14v14c0,7.81666 -6.18334,14 -14,14h-7z"/></g></g></svg>
