<?xml version="1.0" encoding="utf-8"?>
<!-- Generator: Adobe Illustrator 22.0.1, SVG Export Plug-In . SVG Version: 6.00 Build 0)  -->
<svg version="1.1" id="Layer_1" xmlns="http://www.w3.org/2000/svg" xmlns:xlink="http://www.w3.org/1999/xlink" x="0px" y="0px"
	 viewBox="0 0 24 24" style="enable-background:new 0 0 24 24;" xml:space="preserve">
<path d="M20.8,10.1V4.5c0-0.7-0.6-1.3-1.3-1.3h-15c-0.7,0-1.3,0.6-1.3,1.3v5.8H2v1.3v1.3V14h1.3v5.5c0,0.7,0.6,1.3,1.3,1.3h15
	c0.7,0,1.3-0.6,1.3-1.3v-5.6H22v-1.3v-1.3V10h-1.2V10.1z M3.3,11.5h1.3v1.3H3.3V11.5z M19.5,19.5h-15V14h1.3v-1.3v-1.3v-1.3H4.5V4.5
	h15v5.6h-1.3v1.3v1.3V14h1.3V19.5z M20.8,12.6h-1.3v-1.3h1.3V12.6z"/>
<polygon points="14,11.5 14,14.1 10,14.1 10,11.5 8.7,11.5 8.7,18 10,18 10,15.4 14,15.4 14,18 15.3,18 15.3,11.5 "/>
<polygon points="12,6 12.6,7.3 14.1,7.5 13.1,8.6 13.3,10 12,9.3 10.7,10 10.9,8.6 9.9,7.5 11.4,7.3 "/>
</svg>
