<?xml version="1.0"?>
<svg xmlns="http://www.w3.org/2000/svg" xmlns:xlink="http://www.w3.org/1999/xlink" version="1.1" viewBox="0 0 224 224" width="20px" height="20px"><g fill-rule="nonzero" stroke="none" stroke-width="1" stroke-linecap="butt" stroke-linejoin="miter" stroke-miterlimit="10" stroke-dasharray="" stroke-dashoffset="0" font-family="none" font-weight="none" font-size="none" text-anchor="none" style="mix-blend-mode: normal"><path d="M0,224v-224h224v224z" fill="none"/><g id="original-icon"><g id="surface1"><path d="M22.4,22.4c-7.3675,0 -13.44,6.0725 -13.44,13.44v152.32c0,7.3675 6.0725,13.44 13.44,13.44h179.2c7.3675,0 13.44,-6.0725 13.44,-13.44v-152.32c0,-7.3675 -6.0725,-13.44 -13.44,-13.44zM22.4,31.36h179.2c2.52,0 4.48,1.96 4.48,4.48v152.32c0,2.52 -1.96,4.48 -4.48,4.48h-179.2c-2.52,0 -4.48,-1.96 -4.48,-4.48v-152.32c0,-2.52 1.96,-4.48 4.48,-4.48zM84.56,80.64c-0.7,0.07 -1.365,0.315 -1.96,0.7l-40.32,26.88c-1.295,0.8225 -2.0825,2.24 -2.0825,3.78c0,1.54 0.7875,2.9575 2.0825,3.78l40.32,26.88c1.3825,0.945 3.185,1.0325 4.655,0.245c1.47,-0.805 2.38,-2.345 2.345,-4.025v-53.76c0.0175,-1.295 -0.5425,-2.52 -1.505,-3.3775c-0.9625,-0.8575 -2.2575,-1.26 -3.535,-1.1025zM138.32,80.64c-2.2575,0.28 -3.9375,2.205 -3.92,4.48v53.76c-0.035,1.68 0.875,3.22 2.345,4.025c1.47,0.7875 3.2725,0.7 4.655,-0.245l40.32,-26.88c1.295,-0.8225 2.0825,-2.24 2.0825,-3.78c0,-1.54 -0.7875,-2.9575 -2.0825,-3.78l-40.32,-26.88c-0.91,-0.595 -1.995,-0.84 -3.08,-0.7zM80.64,93.52v36.96l-27.72,-18.48zM143.36,93.52l27.72,18.48l-27.72,18.48z"/></g></g></g></svg>
