<?xml version="1.0"?>
<svg xmlns="http://www.w3.org/2000/svg" xmlns:xlink="http://www.w3.org/1999/xlink" version="1.1" viewBox="0 0 224 224" width="20px" height="20px"><g fill-rule="nonzero" stroke="none" stroke-width="1" stroke-linecap="butt" stroke-linejoin="miter" stroke-miterlimit="10" stroke-dasharray="" stroke-dashoffset="0" font-family="none" font-weight="none" font-size="none" text-anchor="none" style="mix-blend-mode: normal"><path d="M0,224v-224h224v224z" fill="none"/><g><g id="surface1"><path d="M21,35v112h25.15625l-0.65625,7l7,0.65625l15.96875,1.75l-1.09375,6.125l-1.3125,6.78125l6.78125,1.3125l110.03125,21l6.78125,1.3125l1.3125,-6.78125l18.8125,-96.6875l1.53125,-6.78125l-7,-1.3125l-23.625,-4.59375l1.3125,-13.78125l0.65625,-6.78125l-6.78125,-0.875l-28.875,-3.5v-16.84375zM35,49h98v84h-98zM84,63c-11.51172,0 -21,9.48828 -21,21c0,4.70313 1.50391,9.16016 4.15625,12.6875c-6.78125,5.11328 -11.15625,13.15234 -11.15625,22.3125h14c0,-8.33984 5.66016,-14 14,-14c8.33984,0 14,5.66016 14,14h14c0,-9.16016 -4.375,-17.19922 -11.15625,-22.3125c2.65234,-3.52734 4.15625,-7.98437 4.15625,-12.6875c0,-11.51172 -9.48828,-21 -21,-21zM147,65.84375l20.34375,2.625l-8.53125,83.34375l-44.84375,-4.8125h33.03125zM84,77c3.9375,0 7,3.0625 7,7c0,3.9375 -3.0625,7 -7,7c-3.9375,0 -7,-3.0625 -7,-7c0,-3.9375 3.0625,-7 7,-7zM179.15625,90.78125l15.75,3.0625l-16.40625,82.6875l-96.03125,-18.375v-0.4375l82.03125,8.75l7,0.875l0.65625,-7z"/></g></g></g></svg>
