<?xml version="1.0"?>
<svg xmlns="http://www.w3.org/2000/svg" xmlns:xlink="http://www.w3.org/1999/xlink" version="1.1" viewBox="0 0 224 224" width="20px" height="20px"><g transform="translate(1.008,1.008) scale(0.991,0.991)"><g fill-rule="nonzero" stroke="none" stroke-width="none" stroke-linecap="butt" stroke-linejoin="none" stroke-miterlimit="10" stroke-dasharray="" stroke-dashoffset="0" font-family="none" font-weight="none" font-size="none" text-anchor="none" style="mix-blend-mode: normal"><g fill="#666666" stroke="#666666" stroke-width="2" stroke-linejoin="round"><g id="surface1 1"><path d="M224,40.32v143.36c0,7.3675 -6.0725,13.44 -13.44,13.44c-6.1775,0 -11.34,-4.34 -12.88,-10.08l-80.64,-28.28l-2.94,8.82c-3.465,10.395 -14.805,16.065 -25.2,12.6l-18.62,-6.3c-10.395,-3.465 -16.065,-14.805 -12.6,-25.2c0,-0.0525 0,-0.0875 0,-0.14l3.5,-9.24l-35.7,-12.46c-2.205,4.4625 -6.7725,7.56 -12.04,7.56c-7.3675,0 -13.44,-6.0725 -13.44,-13.44v-26.88c0,-7.3675 6.0725,-13.44 13.44,-13.44c5.355,0 9.8875,3.255 12.04,7.84l172.2,-51.66c1.575,-5.67 6.7375,-9.94 12.88,-9.94c7.3675,0 13.44,6.0725 13.44,13.44zM206.08,39.9c0,0.14 0,143.64 0,143.78c0,0.0525 0,0.0875 0,0.14c0.07,2.4675 1.995,4.34 4.48,4.34c2.52,0 4.48,-1.96 4.48,-4.48v-143.36c0,-2.52 -1.96,-4.48 -4.48,-4.48c-2.38,0 -4.27,1.7325 -4.48,4.06zM26.88,97.44v20.3l170.24,59.64v-131.04zM8.96,94.08v26.88c0,2.52 1.96,4.48 4.48,4.48c2.38,0 4.27,-1.7325 4.48,-4.06c0,-0.14 0,-27.16 0,-27.3c0,-0.14 0.0175,-0.28 0,-0.42c-0.21,-2.3275 -2.1,-4.06 -4.48,-4.06c-2.52,0 -4.48,1.96 -4.48,4.48zM66.22,151.48c-0.0175,0.0525 0.0175,0.0875 0,0.14c-1.8375,5.7575 1.12,11.935 6.86,13.86l18.62,6.16c5.81,1.9425 11.935,-1.19 13.86,-7l2.94,-8.82l-38.92,-13.58z"/></g></g><path d="M0,224v-224h224v224z" fill="none" stroke="none" stroke-width="1" stroke-linejoin="miter"/><g stroke="none" stroke-width="1" stroke-linejoin="miter"><g id="surface1"><path d="M210.56,26.88c-6.1425,0 -11.305,4.27 -12.88,9.94l-172.2,51.66c-2.1525,-4.585 -6.685,-7.84 -12.04,-7.84c-7.3675,0 -13.44,6.0725 -13.44,13.44v26.88c0,7.3675 6.0725,13.44 13.44,13.44c5.2675,0 9.835,-3.0975 12.04,-7.56l35.7,12.46l-3.5,9.24c0,0.0525 0,0.0875 0,0.14c-3.465,10.395 2.205,21.735 12.6,25.2l18.62,6.3c10.395,3.465 21.735,-2.205 25.2,-12.6l2.94,-8.82l80.64,28.28c1.54,5.74 6.7025,10.08 12.88,10.08c7.3675,0 13.44,-6.0725 13.44,-13.44v-143.36c0,-7.3675 -6.0725,-13.44 -13.44,-13.44zM210.56,35.84c2.52,0 4.48,1.96 4.48,4.48v143.36c0,2.52 -1.96,4.48 -4.48,4.48c-2.485,0 -4.41,-1.8725 -4.48,-4.34c0,-0.0525 0,-0.0875 0,-0.14v-143.36c0,-0.14 0,-0.28 0,-0.42c0.21,-2.3275 2.1,-4.06 4.48,-4.06zM197.12,46.34v131.04l-170.24,-59.64v-20.3zM13.44,89.6c2.38,0 4.27,1.7325 4.48,4.06c0.0175,0.14 0,0.28 0,0.42v26.88c0,0.14 0,0.28 0,0.42c-0.21,2.3275 -2.1,4.06 -4.48,4.06c-2.52,0 -4.48,-1.96 -4.48,-4.48v-26.88c0,-2.52 1.96,-4.48 4.48,-4.48zM69.58,142.24l38.92,13.58l-2.94,8.82c-1.925,5.81 -8.05,8.9425 -13.86,7l-18.62,-6.16c-5.74,-1.925 -8.6975,-8.1025 -6.86,-13.86c0.0175,-0.0525 -0.0175,-0.0875 0,-0.14z"/></g></g><path d="" fill="none" stroke="none" stroke-width="1" stroke-linejoin="miter"/><path d="" fill="none" stroke="none" stroke-width="1" stroke-linejoin="miter"/></g></g></svg>
