<?xml version="1.0"?>
<svg xmlns="http://www.w3.org/2000/svg" xmlns:xlink="http://www.w3.org/1999/xlink" version="1.1" viewBox="0 0 224 224" width="20px" height="20px"><g fill-rule="nonzero" stroke="none" stroke-width="1" stroke-linecap="butt" stroke-linejoin="miter" stroke-miterlimit="10" stroke-dasharray="" stroke-dashoffset="0" font-family="none" font-weight="none" font-size="none" text-anchor="none" style="mix-blend-mode: normal"><path d="M0,224v-224h224v224z" fill="none"/><g><g id="surface1"><path d="M14,35v154h196v-154zM28,49h168v97.34375l-36.96875,-37.1875l-5.03125,-5.03125l-31.71875,31.71875l-40.25,-40.6875l-5.03125,-5.03125l-49,49zM168,63c-7.73828,0 -14,6.26172 -14,14c0,7.73828 6.26172,14 14,14c7.73828,0 14,-6.26172 14,-14c0,-7.73828 -6.26172,-14 -14,-14zM77,110.03125l64.3125,64.96875h-113.3125v-15.96875zM154,124.03125l42,42v8.96875h-34.78125l-29.09375,-29.3125z"/></g></g></g></svg>
