<?xml version="1.0" encoding="UTF-8"?>
<svg xmlns="http://www.w3.org/2000/svg" xmlns:xlink="http://www.w3.org/1999/xlink" viewBox="0 0 32 32" version="1.1" width="20px" height="20px">
<g id="surface1">
<path style=" " d="M 3 7 L 3 12 L 8 12 L 8 7 Z M 10 7 L 10 12 L 15 12 L 15 7 Z M 17 7 L 17 12 L 22 12 L 22 7 Z M 24 7 L 24 12 L 29 12 L 29 7 Z M 5 9 L 6 9 L 6 10 L 5 10 Z M 12 9 L 13 9 L 13 10 L 12 10 Z M 19 9 L 20 9 L 20 10 L 19 10 Z M 26 9 L 27 9 L 27 10 L 26 10 Z M 3 14 L 3 19 L 8 19 L 8 14 Z M 10 14 L 10 19 L 15 19 L 15 14 Z M 17 14 L 17 19 L 22 19 L 22 14 Z M 24 14 L 24 19 L 29 19 L 29 14 Z M 5 16 L 6 16 L 6 17 L 5 17 Z M 12 16 L 13 16 L 13 17 L 12 17 Z M 19 16 L 20 16 L 20 17 L 19 17 Z M 26 16 L 27 16 L 27 17 L 26 17 Z M 3 21 L 3 26 L 8 26 L 8 21 Z M 10 21 L 10 26 L 15 26 L 15 21 Z M 17 21 L 17 26 L 22 26 L 22 21 Z M 24 21 L 24 26 L 29 26 L 29 21 Z M 5 23 L 6 23 L 6 24 L 5 24 Z M 12 23 L 13 23 L 13 24 L 12 24 Z M 19 23 L 20 23 L 20 24 L 19 24 Z M 26 23 L 27 23 L 27 24 L 26 24 Z "/>
</g>
</svg>
