<?xml version="1.0" encoding="utf-8"?>
<!-- Generator: Adobe Illustrator 22.0.1, SVG Export Plug-In . SVG Version: 6.00 Build 0)  -->
<svg version="1.1" id="Layer_1" xmlns="http://www.w3.org/2000/svg" xmlns:xlink="http://www.w3.org/1999/xlink" x="0px" y="0px"
     viewBox="0 0 20 20" style="enable-background:new 0 0 20 20;" xml:space="preserve">
<g>
    <g>
        <path d="M5.1,11.3l5.5,4.4H1V14L5.1,11.3 M5.2,10.1L0,13.4v3.3h13.5L5.2,10.1L5.2,10.1z"/>
    </g>
    <g>
        <g>
            <polygon points="17.5,8.1 16.1,7 14.6,8.1 14,7.3 16.1,5.7 18.1,7.3             "/>
        </g>
        <g>
            <polygon points="16.1,14.3 14,12.7 14.6,11.9 16.1,13 17.5,11.9 18.1,12.7             "/>
        </g>
    </g>
    <g>
        <path d="M19,4.3v11.5H1V4.3H19 M20,3.3H0v13.5h20V3.3L20,3.3z"/>
    </g>
    <g>
        <path d="M3.7,8.9C2.6,8.9,1.8,8,1.8,7s0.8-1.9,1.9-1.9S5.5,6,5.5,7S4.7,8.9,3.7,8.9z M3.7,6.2C3.2,6.2,2.8,6.5,2.8,7
            s0.4,0.9,0.9,0.9S4.5,7.5,4.5,7S4.1,6.2,3.7,6.2z"/>
    </g>
</g>
</svg>