<?xml version="1.0"?>
<svg xmlns="http://www.w3.org/2000/svg" xmlns:xlink="http://www.w3.org/1999/xlink" version="1.1" viewBox="0 0 224 224" width="20px" height="20px"><g fill-rule="nonzero" stroke="none" stroke-width="1" stroke-linecap="butt" stroke-linejoin="miter" stroke-miterlimit="10" stroke-dasharray="" stroke-dashoffset="0" font-family="none" font-weight="none" font-size="none" text-anchor="none" style="mix-blend-mode: normal"><path d="M0,224v-224h224v224z" fill="none"/><g><g id="surface1"><path d="M112,13.44c-14.7875,0 -26.88,12.0925 -26.88,26.88c0,14.7875 12.0925,26.88 26.88,26.88c14.7875,0 26.88,-12.0925 26.88,-26.88c0,-14.7875 -12.0925,-26.88 -26.88,-26.88zM112,85.12c-14.7875,0 -26.88,12.0925 -26.88,26.88c0,14.7875 12.0925,26.88 26.88,26.88c14.7875,0 26.88,-12.0925 26.88,-26.88c0,-14.7875 -12.0925,-26.88 -26.88,-26.88zM112,156.8c-14.7875,0 -26.88,12.0925 -26.88,26.88c0,14.7875 12.0925,26.88 26.88,26.88c14.7875,0 26.88,-12.0925 26.88,-26.88c0,-14.7875 -12.0925,-26.88 -26.88,-26.88z"/></g></g></g></svg>
