<?xml version="1.0"?>
<svg xmlns="http://www.w3.org/2000/svg" xmlns:xlink="http://www.w3.org/1999/xlink" version="1.1" viewBox="0 0 224 224" width="20px" height="20px"><g fill-rule="nonzero" stroke="none" stroke-width="1" stroke-linecap="butt" stroke-linejoin="miter" stroke-miterlimit="10" stroke-dasharray="" stroke-dashoffset="0" font-family="none" font-weight="none" font-size="none" text-anchor="none" style="mix-blend-mode: normal"><path d="M0,224v-224h224v224z" fill="none"/><g id="original-icon"><path d="M112,8.96c-56.85436,0 -103.04,46.18564 -103.04,103.04c0,56.85436 46.18564,103.04 103.04,103.04c56.85436,0 103.04,-46.18564 103.04,-103.04c0,-56.85436 -46.18564,-103.04 -103.04,-103.04zM112,17.92c52.01201,0 94.08,42.06799 94.08,94.08c0,52.01201 -42.06799,94.08 -94.08,94.08c-52.01201,0 -94.08,-42.06799 -94.08,-94.08c0,-52.01201 42.06799,-94.08 94.08,-94.08zM106.6275,64.0675c-1.344,0 -1.79375,0.889 -1.79375,1.785v60.48c0,1.344 0.89775,1.79375 1.79375,1.79375h10.29875c1.344,0 1.79375,-0.89775 1.79375,-1.79375v-60.48c0,-1.344 -0.89775,-1.785 -1.79375,-1.785zM106.6275,144.7075c-1.344,0 -1.79375,0.889 -1.79375,1.785v11.655c0,1.344 0.89775,1.785 1.79375,1.785h10.745c1.344,0 1.79375,-0.889 1.79375,-1.785v-11.655c0,-1.344 -0.89775,-1.785 -1.79375,-1.785z"/></g></g></svg>
