<?xml version="1.0"?>
<svg xmlns="http://www.w3.org/2000/svg" xmlns:xlink="http://www.w3.org/1999/xlink" version="1.1" viewBox="0 0 224 224" width="20px" height="20px"><g fill-rule="nonzero" stroke="none" stroke-width="1" stroke-linecap="butt" stroke-linejoin="miter" stroke-miterlimit="10" stroke-dasharray="" stroke-dashoffset="0" font-family="none" font-weight="none" font-size="none" text-anchor="none" style="mix-blend-mode: normal"><path d="M0,224v-224h224v224z" fill="none"/><g><g id="surface1"><path d="M112,35c-26.98828,0 -49,22.01172 -49,49c0,16.87109 8.61328,31.85547 21.65625,40.6875c-24.96484,10.71875 -42.65625,35.49219 -42.65625,64.3125h14c0,-31.00781 24.99219,-56 56,-56c31.00782,0 56,24.99219 56,56h14c0,-28.82031 -17.69141,-53.59375 -42.65625,-64.3125c13.04297,-8.83203 21.65625,-23.81641 21.65625,-40.6875c0,-26.98828 -22.01172,-49 -49,-49zM112,49c19.41407,0 35,15.58594 35,35c0,19.41407 -15.58593,35 -35,35c-19.41406,0 -35,-15.58593 -35,-35c0,-19.41406 15.58594,-35 35,-35z"/></g></g></g></svg>
