<?xml version="1.0"?>
<svg xmlns="http://www.w3.org/2000/svg" xmlns:xlink="http://www.w3.org/1999/xlink" version="1.1" viewBox="0 0 224 224" width="20px" height="20px"><g fill-rule="nonzero" stroke="none" stroke-width="1" stroke-linecap="butt" stroke-linejoin="miter" stroke-miterlimit="10" stroke-dasharray="" stroke-dashoffset="0" font-family="none" font-weight="none" font-size="none" text-anchor="none" style="mix-blend-mode: normal"><path d="M0,224v-224h224v224z" fill="none"/><g><g id="surface1"><path d="M28,28v168h14v-35h15.3125c2.92578,8.09375 10.63672,14 19.6875,14c9.05078,0 16.76172,-5.90625 19.6875,-14h99.3125v-14h-99.3125c-2.92578,-8.09375 -10.63672,-14 -19.6875,-14c-9.05078,0 -16.76172,5.90625 -19.6875,14h-15.3125v-28h99.3125c2.92578,8.09375 10.63672,14 19.6875,14c9.05078,0 16.76172,-5.90625 19.6875,-14h15.3125v-14h-15.3125c-2.92578,-8.09375 -10.63672,-14 -19.6875,-14c-9.05078,0 -16.76172,5.90625 -19.6875,14h-99.3125v-28h50.3125c2.92578,8.09375 10.63672,14 19.6875,14c9.05078,0 16.76172,-5.90625 19.6875,-14h64.3125v-14h-64.3125c-2.92578,-8.09375 -10.63672,-14 -19.6875,-14c-9.05078,0 -16.76172,5.90625 -19.6875,14h-50.3125v-35zM112,63c3.9375,0 7,3.0625 7,7c0,3.9375 -3.0625,7 -7,7c-3.9375,0 -7,-3.0625 -7,-7c0,-3.9375 3.0625,-7 7,-7zM161,105c3.9375,0 7,3.0625 7,7c0,3.9375 -3.0625,7 -7,7c-3.9375,0 -7,-3.0625 -7,-7c0,-3.9375 3.0625,-7 7,-7zM77,147c3.9375,0 7,3.0625 7,7c0,3.9375 -3.0625,7 -7,7c-3.9375,0 -7,-3.0625 -7,-7c0,-3.9375 3.0625,-7 7,-7z"/></g></g></g></svg>
