<?xml version="1.0"?>
<svg xmlns="http://www.w3.org/2000/svg" xmlns:xlink="http://www.w3.org/1999/xlink" version="1.1" viewBox="0 0 224 224" width="20px" height="20px"><g fill-rule="nonzero" stroke="none" stroke-width="1" stroke-linecap="butt" stroke-linejoin="miter" stroke-miterlimit="10" stroke-dasharray="" stroke-dashoffset="0" font-family="none" font-weight="none" font-size="none" text-anchor="none" style="mix-blend-mode: normal"><path d="M0,224v-224h224v224z" fill="none"/><g><g id="surface1"><path d="M76.16,8.96c-5.7925,0 -10.7275,3.78 -12.6,8.96h-41.16c-7.3675,0 -13.44,6.0725 -13.44,13.44v161.28c0,7.3675 6.0725,13.44 13.44,13.44h41.16c1.8725,5.18 6.8075,8.96 12.6,8.96h71.68c5.7925,0 10.7275,-3.78 12.6,-8.96h41.16c7.3675,0 13.44,-6.0725 13.44,-13.44v-161.28c0,-7.3675 -6.0725,-13.44 -13.44,-13.44h-41.16c-1.8725,-5.18 -6.8075,-8.96 -12.6,-8.96zM76.16,17.92h71.68c2.5375,0 4.48,1.9425 4.48,4.48v179.2c0,2.5375 -1.9425,4.48 -4.48,4.48h-71.68c-2.5375,0 -4.48,-1.9425 -4.48,-4.48v-179.2c0,-2.5375 1.9425,-4.48 4.48,-4.48zM22.4,26.88h40.32v26.88h-31.36v8.96h31.36v8.96h-31.36v8.96h31.36v35.84h-8.96v8.96h8.96v8.96h-8.96v8.96h8.96v53.76h-40.32c-2.5375,0 -4.48,-1.9425 -4.48,-4.48v-161.28c0,-2.5375 1.9425,-4.48 4.48,-4.48zM161.28,26.88h40.32c2.5375,0 4.48,1.9425 4.48,4.48v161.28c0,2.5375 -1.9425,4.48 -4.48,4.48h-40.32v-35.84h31.36v-8.96h-31.36v-8.96h31.36v-8.96h-31.36v-8.96h31.36v-8.96h-31.36v-35.84h31.36v-8.96h-31.36v-8.96h31.36v-8.96h-31.36zM85.12,44.8v8.96h53.76v-8.96zM85.12,62.72v8.96h53.76v-8.96zM40.32,116.48c-2.4675,0 -4.48,2.0125 -4.48,4.48c0,2.4675 2.0125,4.48 4.48,4.48c2.4675,0 4.48,-2.0125 4.48,-4.48c0,-2.4675 -2.0125,-4.48 -4.48,-4.48zM89.6,116.48c-2.4675,0 -4.48,2.0125 -4.48,4.48c0,2.4675 2.0125,4.48 4.48,4.48c2.4675,0 4.48,-2.0125 4.48,-4.48c0,-2.4675 -2.0125,-4.48 -4.48,-4.48zM103.04,116.48v8.96h35.84v-8.96zM40.32,134.4c-2.4675,0 -4.48,2.0125 -4.48,4.48c0,2.4675 2.0125,4.48 4.48,4.48c2.4675,0 4.48,-2.0125 4.48,-4.48c0,-2.4675 -2.0125,-4.48 -4.48,-4.48zM89.6,134.4c-2.4675,0 -4.48,2.0125 -4.48,4.48c0,2.4675 2.0125,4.48 4.48,4.48c2.4675,0 4.48,-2.0125 4.48,-4.48c0,-2.4675 -2.0125,-4.48 -4.48,-4.48zM103.04,134.4v8.96h35.84v-8.96zM89.6,152.32c-2.4675,0 -4.48,2.0125 -4.48,4.48c0,2.4675 2.0125,4.48 4.48,4.48c2.4675,0 4.48,-2.0125 4.48,-4.48c0,-2.4675 -2.0125,-4.48 -4.48,-4.48zM103.04,152.32v8.96h35.84v-8.96zM89.6,170.24c-2.4675,0 -4.48,2.0125 -4.48,4.48c0,2.4675 2.0125,4.48 4.48,4.48c2.4675,0 4.48,-2.0125 4.48,-4.48c0,-2.4675 -2.0125,-4.48 -4.48,-4.48zM103.04,170.24v8.96h35.84v-8.96z"/></g></g></g></svg>
